<svg width="190" height="190" viewBox="0 0 190 190" fill="none" xmlns="http://www.w3.org/2000/svg">
<g id="Group 2">
<g id="Ellipse 1" filter="url(#filter0_d_4269_3)">
<circle cx="91" cy="80" r="60" fill="white"/>
</g>
<path id="Vector" d="M117.88 91.9405C119.28 88.2837 120.04 84.3688 120.04 80.0666C120.04 76.9691 119.6 74.0006 118.84 71.2473C116.24 71.8926 113.52 72.2367 110.68 72.2367C104.864 72.2435 99.1315 70.7461 93.9661 67.871C88.8007 64.9959 84.3537 60.8273 81 55.7166C77.4124 65.0529 70.6445 72.5629 62.08 76.711C61.92 77.7865 61.92 78.9481 61.92 80.0666C61.92 84.1739 62.6722 88.241 64.1336 92.0356C65.595 95.8303 67.737 99.2782 70.4373 102.182C75.8909 108.048 83.2875 111.343 91 111.343C95.2 111.343 99.24 110.354 102.88 108.59C105.16 113.279 106.2 115.602 106.12 115.602C99.56 117.968 94.48 119.13 91 119.13C81.32 119.13 72.08 115.043 65.28 107.686C61.144 103.252 58.0695 97.8043 56.32 91.8114H51V72.2367H55.36C56.681 65.3211 59.718 58.9191 64.1488 53.71C68.5795 48.5009 74.2388 44.679 80.5261 42.6499C86.8134 40.6208 93.4941 40.4602 99.8595 42.1851C106.225 43.91 112.037 47.456 116.68 52.4469C121.721 57.8472 125.159 64.7343 126.56 72.2367H131V91.8114H130.76L116.52 105.879L95.32 103.298V96.1136H114.64L117.88 91.9405ZM80.08 79.0771C81.28 79.0771 82.44 79.5934 83.28 80.5399C84.1242 81.4552 84.5979 82.6923 84.5979 83.9816C84.5979 85.2709 84.1242 86.5079 83.28 87.4233C82.44 88.3267 81.28 88.843 80.08 88.843C77.56 88.843 75.52 86.6919 75.52 83.9816C75.52 81.2712 77.56 79.0771 80.08 79.0771ZM101.88 79.0771C104.4 79.0771 106.4 81.2712 106.4 83.9816C106.4 86.6919 104.4 88.843 101.88 88.843C99.36 88.843 97.32 86.6919 97.32 83.9816C97.32 82.6808 97.8004 81.4334 98.6556 80.5136C99.5108 79.5938 100.671 79.0771 101.88 79.0771Z" fill="black"/>
</g>
<defs>
<filter id="filter0_d_4269_3" x="0" y="0" width="190" height="190" filterUnits="userSpaceOnUse" color-interpolation-filters="sRGB">
<feFlood flood-opacity="0" result="BackgroundImageFix"/>
<feColorMatrix in="SourceAlpha" type="matrix" values="0 0 0 0 0 0 0 0 0 0 0 0 0 0 0 0 0 0 127 0" result="hardAlpha"/>
<feOffset dx="4" dy="15"/>
<feGaussianBlur stdDeviation="17.5"/>
<feComposite in2="hardAlpha" operator="out"/>
<feColorMatrix type="matrix" values="0 0 0 0 0 0 0 0 0 0 0 0 0 0 0 0 0 0 0.25 0"/>
<feBlend mode="normal" in2="BackgroundImageFix" result="effect1_dropShadow_4269_3"/>
<feBlend mode="normal" in="SourceGraphic" in2="effect1_dropShadow_4269_3" result="shape"/>
</filter>
</defs>
</svg>
