<svg width="67" height="48" viewBox="0 0 67 48" fill="none" xmlns="http://www.w3.org/2000/svg">
<path d="M3.72222 47.4433C2.66759 47.4433 1.78419 47.0704 1.072 46.3248C0.357334 45.5817 0 44.6599 0 43.5595C0 42.4591 0.357334 41.5373 1.072 40.7943C1.78419 40.0486 2.66759 39.6757 3.72222 39.6757H63.2778C64.3324 39.6757 65.2158 40.0486 65.928 40.7943C66.6427 41.5373 67 42.4591 67 43.5595C67 44.6599 66.6427 45.5817 65.928 46.3248C65.2158 47.0704 64.3324 47.4433 63.2778 47.4433H3.72222ZM3.72222 28.0244C2.66759 28.0244 1.78419 27.6515 1.072 26.9058C0.357334 26.1627 0 25.241 0 24.1406C0 23.0402 0.357334 22.1171 1.072 21.3714C1.78419 20.6283 2.66759 20.2568 3.72222 20.2568H63.2778C64.3324 20.2568 65.2158 20.6283 65.928 21.3714C66.6427 22.1171 67 23.0402 67 24.1406C67 25.241 66.6427 26.1627 65.928 26.9058C65.2158 27.6515 64.3324 28.0244 63.2778 28.0244H3.72222ZM3.72222 8.60543C2.66759 8.60543 1.78419 8.23388 1.072 7.49079C0.357334 6.7451 0 5.82205 0 4.72165C0 3.62124 0.357334 2.69819 1.072 1.95251C1.78419 1.20941 2.66759 0.83786 3.72222 0.83786H63.2778C64.3324 0.83786 65.2158 1.20941 65.928 1.95251C66.6427 2.69819 67 3.62124 67 4.72165C67 5.82205 66.6427 6.7451 65.928 7.49079C65.2158 8.23388 64.3324 8.60543 63.2778 8.60543H3.72222Z" fill="white"/>
</svg>
