<svg width="14" height="8" viewBox="0 0 14 8" fill="none" xmlns="http://www.w3.org/2000/svg">
<path id="Vector" d="M13.723 1.67977L7.51715 7.71128C7.44327 7.78287 7.36324 7.83346 7.27704 7.86305C7.19085 7.89312 7.0985 7.90815 7 7.90815C6.90149 7.90815 6.80915 7.89312 6.72295 7.86305C6.63676 7.83346 6.55673 7.78287 6.48285 7.71128L0.258575 1.67977C0.0861917 1.51273 0 1.30392 0 1.05336C0 0.802789 0.0923483 0.588018 0.277045 0.409041C0.461741 0.230065 0.677221 0.140577 0.923483 0.140577C1.16974 0.140577 1.38522 0.230065 1.56992 0.409041L7 5.67095L12.4301 0.409041C12.6025 0.241997 12.8147 0.158474 13.0669 0.158474C13.3196 0.158474 13.5383 0.247962 13.723 0.426939C13.9077 0.605915 14 0.814721 14 1.05336C14 1.29199 13.9077 1.5008 13.723 1.67977Z" fill="white"/>
</svg>
